<?xml version="1.0" standalone="no"?>
<!DOCTYPE svg PUBLIC "-//W3C//DTD SVG 20010904//EN"
 "http://www.w3.org/TR/2001/REC-SVG-20010904/DTD/svg10.dtd">
<svg version="1.0" xmlns="http://www.w3.org/2000/svg"
 width="822.000000pt" height="822.000000pt" viewBox="0 0 822.000000 822.000000"
 preserveAspectRatio="xMidYMid meet">
<metadata>
Created by potrace 1.11, written by Peter Selinger 2001-2013
</metadata>
<g transform="translate(0.000000,822.000000) scale(0.100000,-0.100000)"
fill="#000000" stroke="none">
<path d="M4950 8184 c0 -9 -5 -12 -12 -8 -8 5 -7 0 2 -11 9 -11 10 -16 3 -11
-10 5 -13 -7 -13 -49 0 -36 -4 -54 -10 -50 -6 4 -10 3 -9 -2 1 -4 1 -39 0 -76
-1 -52 -4 -66 -13 -61 -8 5 -7 0 2 -11 9 -11 10 -16 3 -11 -7 4 -13 3 -13 -3
0 -5 6 -12 13 -14 10 -4 10 -6 0 -6 -7 -1 -13 -6 -13 -12 0 -5 6 -7 13 -3 10
6 10 4 0 -7 -7 -7 -13 -17 -13 -22 0 -4 6 -5 13 -1 10 6 10 4 0 -7 -7 -7 -13
-29 -13 -49 0 -20 6 -42 13 -49 10 -11 9 -12 -3 -6 -13 8 -13 6 -2 -7 10 -13
10 -17 0 -21 -10 -4 -10 -6 0 -6 8 -1 12 -22 12 -72 0 -38 4 -68 8 -65 5 3 9
-1 9 -9 0 -8 -4 -12 -9 -9 -4 3 -8 0 -8 -5 0 -6 5 -11 10 -11 6 0 10 -27 10
-61 0 -33 3 -58 8 -56 4 3 8 -11 10 -31 1 -20 8 -40 15 -44 9 -6 8 -8 -3 -8
-11 0 -12 -2 -3 -8 7 -4 13 -28 15 -54 2 -25 6 -44 11 -41 4 2 7 -12 7 -32 0
-22 4 -34 10 -30 6 4 10 -13 10 -45 0 -32 4 -49 10 -45 6 3 10 -3 10 -14 0
-10 6 -22 13 -24 10 -4 10 -6 0 -6 -7 -1 -13 -6 -13 -12 0 -5 5 -7 10 -4 6 4
10 -12 10 -40 0 -28 4 -44 10 -40 6 4 10 -7 10 -25 0 -18 4 -29 10 -25 6 4 10
-12 10 -39 0 -25 5 -46 10 -46 6 0 10 -9 10 -20 0 -11 5 -20 10 -20 6 0 10
-18 10 -40 0 -22 3 -40 8 -40 11 0 32 -51 32 -80 0 -14 9 -36 20 -47 14 -15
16 -23 7 -26 -9 -4 -9 -6 1 -6 7 -1 12 -16 12 -42 0 -24 4 -38 10 -34 6 3 10
-3 10 -14 0 -12 5 -21 10 -21 6 0 10 -24 10 -52 0 -38 3 -49 10 -38 8 12 10
10 10 -8 0 -14 4 -21 11 -17 6 4 5 -3 -3 -15 -10 -18 -10 -24 0 -27 7 -3 12
-22 12 -44 0 -21 5 -39 10 -39 6 0 10 -18 10 -40 0 -22 5 -40 10 -40 6 0 9 -3
9 -7 -1 -5 -1 -43 0 -86 1 -60 4 -76 14 -71 7 5 6 0 -3 -11 -8 -10 -10 -16 -3
-12 8 5 12 -13 15 -65 4 -102 -1 -180 -13 -173 -5 4 -9 -11 -9 -34 0 -37 -2
-41 -26 -41 -16 0 -23 -4 -18 -12 4 -7 3 -8 -4 -4 -7 4 -12 13 -12 20 0 8 -19
13 -57 15 -32 1 -60 7 -64 12 -3 6 -9 10 -13 10 -40 -5 -126 1 -121 9 5 8
-102 17 -137 11 -5 0 -8 3 -8 9 0 6 -33 10 -80 10 -47 0 -80 4 -80 10 0 6 -63
10 -169 10 -121 0 -170 3 -173 12 -3 7 -11 9 -24 3 -29 -12 -43 -14 -49 -5 -3
4 -44 9 -91 9 -65 1 -84 -2 -78 -12 6 -9 4 -9 -7 1 -7 6 -25 12 -40 12 -15 0
-30 -6 -32 -12 -4 -10 -6 -10 -6 0 -1 6 -10 12 -22 12 -13 0 -18 -4 -13 -12 6
-10 4 -10 -7 0 -7 6 -25 12 -40 12 -15 0 -30 -6 -32 -12 -4 -10 -6 -10 -6 0
-1 8 -19 12 -55 12 -34 0 -56 -5 -59 -12 -4 -10 -6 -10 -6 0 -1 6 -6 12 -12
12 -5 0 -8 -4 -5 -8 2 -4 -5 -9 -17 -9 -17 -2 -19 0 -7 7 13 8 12 10 -2 10
-10 0 -18 -4 -18 -8 0 -5 -7 -9 -15 -9 -8 0 -15 5 -15 11 0 7 -3 6 -8 -1 -6
-9 -61 -13 -200 -13 -139 -1 -192 -5 -192 -13 0 -7 -4 -6 -10 3 -9 13 -10 13
-10 0 0 -12 -2 -13 -9 -1 -6 8 -10 9 -12 2 -3 -6 -38 -12 -92 -13 -49 -1 -82
-5 -75 -10 7 -4 -44 -8 -114 -8 -74 0 -129 -4 -133 -10 -3 -5 -40 -10 -81 -10
-48 0 -73 -4 -69 -10 4 -6 -25 -10 -79 -10 -62 0 -86 -3 -86 -12 0 -10 -3 -9
-9 1 -6 8 -10 9 -12 2 -2 -6 -31 -11 -67 -12 -34 -1 -65 -6 -68 -10 -3 -5 -30
-9 -60 -9 -30 0 -54 -4 -54 -10 0 -5 -22 -10 -50 -10 -27 0 -50 -4 -50 -10 0
-5 -5 -10 -11 -10 -5 0 -7 6 -3 13 6 10 4 10 -7 0 -21 -20 -73 -16 -89 7 -8
11 -20 20 -28 20 -17 0 -43 25 -35 34 4 3 -1 6 -10 6 -9 0 -17 5 -17 10 0 6
-7 10 -16 10 -8 0 -12 5 -9 10 3 6 -2 10 -12 10 -10 0 -25 9 -33 20 -8 11 -21
20 -29 20 -7 0 -23 10 -34 23 l-19 22 6 -25 c6 -25 6 -25 -5 -2 -7 12 -20 22
-31 22 -10 0 -18 5 -18 10 0 6 -7 10 -16 10 -8 0 -12 5 -9 10 4 6 -11 10 -37
10 -31 0 -39 3 -28 10 11 7 5 10 -23 10 -23 0 -36 4 -32 10 4 6 -13 10 -44 10
-28 0 -51 5 -51 10 0 6 -7 10 -16 10 -8 0 -13 -4 -10 -9 7 -10 -20 -9 -30 2
-4 4 -20 7 -36 7 -16 0 -27 4 -24 8 3 5 -1 9 -9 9 -8 0 -12 -4 -9 -9 3 -4 0
-8 -5 -8 -6 0 -11 6 -11 13 0 8 -4 7 -10 -3 -9 -13 -10 -13 -10 0 0 11 -3 12
-8 3 -4 -6 -33 -13 -64 -14 -32 -1 -55 -6 -52 -11 3 -4 -16 -8 -41 -8 -28 0
-44 -4 -40 -10 4 -6 -5 -10 -19 -10 -14 0 -26 -4 -26 -10 0 -5 -18 -10 -41
-10 -24 0 -38 -4 -34 -10 3 -5 -1 -10 -10 -10 -9 0 -13 -4 -10 -10 3 -5 -2
-10 -13 -10 -10 0 -28 -9 -40 -20 -12 -11 -26 -20 -32 -20 -5 0 -27 -16 -47
-35 -20 -19 -38 -33 -40 -31 -2 2 -34 -27 -71 -64 -69 -69 -114 -120 -106
-120 2 0 -9 -14 -26 -31 -16 -18 -30 -39 -30 -48 0 -14 -2 -14 -10 -1 -8 12
-10 11 -10 -5 0 -11 -9 -27 -20 -35 -11 -8 -20 -22 -20 -32 0 -10 -4 -18 -10
-18 -5 0 -10 -7 -10 -16 0 -9 -10 -25 -21 -35 -18 -16 -20 -21 -9 -34 8 -9 9
-15 4 -14 -25 4 -33 -4 -39 -41 -4 -22 -11 -40 -16 -40 -5 0 -9 -9 -9 -20 0
-11 -4 -20 -10 -20 -5 0 -10 -9 -10 -20 0 -11 -4 -20 -10 -20 -5 0 -10 -13
-10 -30 0 -16 -5 -30 -11 -30 -7 0 -9 -10 -7 -24 3 -15 1 -23 -6 -20 -8 3 -13
-10 -14 -33 -2 -21 -7 -39 -12 -41 -6 -2 -10 -12 -10 -22 0 -10 -4 -22 -10
-25 -5 -3 -10 -20 -10 -36 0 -17 -4 -28 -8 -25 -4 2 -9 -4 -9 -15 -1 -12 3
-17 10 -13 8 5 8 3 0 -7 -7 -7 -13 -24 -13 -38 0 -21 -2 -23 -11 -11 -7 11 -9
3 -7 -33 2 -30 -1 -46 -7 -43 -6 2 -11 -10 -12 -28 -1 -79 -3 -91 -13 -76 -7
10 -10 -13 -10 -73 0 -56 -4 -86 -10 -82 -14 9 -12 -8 3 -24 9 -11 9 -13 0 -7
-10 6 -13 -17 -14 -96 -1 -57 -1 -125 1 -152 1 -37 -1 -46 -12 -41 -10 6 -11
5 0 -6 16 -18 16 -63 -1 -53 -9 6 -9 5 0 -7 7 -9 13 -56 15 -115 2 -80 6 -99
18 -99 10 0 15 10 15 33 0 22 4 31 12 28 7 -3 12 -2 12 2 -4 24 2 62 9 58 4
-2 9 12 10 32 2 20 7 39 12 40 6 2 10 24 10 48 0 28 4 43 10 39 6 -4 10 7 10
24 0 17 4 31 8 31 5 0 9 6 9 13 1 6 2 31 4 55 1 24 6 45 11 48 4 3 8 18 8 35
0 16 5 29 10 29 6 0 10 17 10 38 0 21 6 44 13 51 10 11 9 12 -3 6 -12 -6 -13
-5 -2 6 6 7 12 26 12 42 0 16 4 26 10 22 9 -6 16 55 11 94 -2 7 2 10 7 7 10
-6 22 49 22 107 0 20 5 37 10 37 6 0 10 15 10 33 0 24 3 28 10 17 7 -11 10 -6
10 22 0 20 6 39 13 41 9 4 9 6 0 6 -7 1 -13 6 -13 12 0 5 5 7 10 4 6 -4 10 5
10 19 0 14 5 26 10 26 6 0 10 14 10 30 0 17 5 30 10 30 6 0 10 9 10 20 0 11 4
20 10 20 5 0 9 3 9 8 -4 24 2 42 13 36 6 -4 8 -3 5 3 -4 6 0 19 8 29 8 10 15
29 15 42 0 12 5 22 10 22 6 0 10 9 10 20 0 11 5 20 10 20 6 0 10 9 10 20 0 11
7 20 16 20 8 0 12 5 9 10 -3 6 -1 10 4 10 6 0 11 7 11 16 0 9 5 12 12 8 7 -4
8 -3 4 4 -4 6 18 35 49 66 30 31 55 64 56 73 0 10 3 13 6 6 3 -8 19 3 43 28
21 22 42 41 47 42 4 1 7 5 6 8 -1 3 5 6 13 7 8 1 21 3 29 4 8 1 12 5 9 10 -3
4 2 8 10 8 9 0 16 5 16 10 0 6 9 10 19 10 11 0 21 4 23 10 2 5 15 11 30 12 15
1 24 6 22 10 -3 4 6 8 20 8 13 0 26 4 28 10 2 5 20 10 40 12 20 1 34 6 32 10
-3 4 24 9 60 9 80 2 82 2 92 12 11 11 134 9 134 -3 0 -5 9 -10 20 -10 11 0 20
-4 20 -10 0 -5 7 -10 16 -10 8 0 12 -4 9 -10 -3 -5 2 -10 12 -10 10 0 25 -9
33 -20 8 -11 22 -20 32 -20 12 0 18 -8 18 -21 0 -11 4 -18 9 -14 12 7 43 -24
36 -36 -4 -5 3 -9 14 -9 14 0 21 -6 21 -20 0 -11 7 -20 15 -20 8 0 15 -4 15
-10 0 -5 11 -20 25 -34 14 -14 25 -32 25 -41 0 -8 8 -15 18 -16 14 0 14 -2 -3
-9 -19 -8 -19 -9 3 -9 20 -1 28 -20 23 -53 0 -5 4 -8 9 -8 6 0 10 -9 10 -20 0
-11 5 -20 10 -20 6 0 10 -13 10 -30 0 -16 5 -30 10 -30 6 0 10 -18 10 -40 0
-22 5 -40 10 -40 14 0 13 -437 -1 -445 -5 -4 -9 -19 -9 -36 0 -16 -4 -29 -10
-29 -5 0 -10 -25 -10 -56 0 -30 -4 -53 -9 -50 -5 3 -8 -14 -8 -38 2 -34 -1
-42 -10 -34 -10 8 -13 -1 -13 -41 0 -37 -3 -50 -12 -45 -6 4 -8 3 -5 -3 3 -5
-1 -22 -9 -37 -7 -16 -14 -42 -14 -58 0 -21 -4 -27 -12 -22 -8 5 -7 0 2 -11 9
-11 10 -16 3 -11 -9 5 -13 -1 -13 -19 0 -14 -4 -24 -8 -21 -4 2 -9 -12 -10
-32 -2 -20 -7 -38 -12 -40 -6 -2 -10 -12 -10 -23 0 -10 -6 -19 -12 -19 -9 0
-8 -4 2 -10 10 -6 11 -10 3 -10 -8 0 -13 -13 -13 -29 0 -17 -5 -33 -11 -37 -6
-3 -9 -17 -7 -29 4 -16 1 -22 -9 -18 -19 7 -16 -7 5 -23 16 -13 16 -14 0 -8
-14 5 -18 1 -18 -15 0 -12 -4 -21 -10 -21 -5 0 -10 -13 -10 -30 0 -16 -4 -30
-10 -30 -5 0 -10 -21 -10 -46 0 -27 -4 -43 -10 -39 -6 4 -10 -6 -10 -24 0 -16
-5 -31 -10 -33 -6 -2 -11 -20 -12 -40 -1 -21 -5 -35 -10 -32 -4 3 -8 -7 -8
-21 0 -18 4 -24 13 -20 6 4 1 -4 -13 -16 -16 -14 -19 -20 -8 -16 10 3 20 2 23
-4 4 -5 3 -9 -2 -8 -26 5 -33 -4 -33 -40 0 -22 -5 -43 -10 -46 -6 -3 -10 -31
-10 -61 0 -30 -4 -54 -10 -54 -6 0 -10 -33 -10 -80 0 -47 -4 -80 -10 -80 -6 0
-10 -27 -10 -60 0 -33 -4 -60 -10 -60 -5 0 -10 -5 -10 -11 0 -5 4 -8 8 -5 5 3
9 -1 9 -9 0 -8 -4 -12 -9 -9 -4 3 -8 -33 -8 -80 0 -48 -5 -88 -10 -91 -8 -5
-7 -12 2 -23 10 -12 10 -14 1 -8 -9 5 -12 1 -11 -11 3 -44 -3 -114 -10 -109
-4 2 -9 -4 -9 -15 -1 -12 3 -17 10 -13 8 5 8 3 0 -7 -9 -9 -13 -52 -13 -140 0
-75 -4 -130 -10 -134 -6 -4 -10 -73 -10 -174 0 -120 -4 -171 -12 -180 -10 -11
-10 -13 -1 -7 8 4 13 1 13 -8 0 -9 -6 -16 -12 -16 -9 0 -8 -4 2 -10 12 -8 13
-11 1 -19 -11 -7 -11 -9 0 -14 12 -4 11 -7 -1 -16 -10 -7 -11 -11 -2 -11 6 0
12 -5 12 -11 0 -5 -6 -7 -12 -3 -10 6 -10 4 0 -7 13 -14 17 -33 4 -25 -4 2 -8
-6 -8 -19 0 -13 4 -21 8 -19 13 8 9 -11 -4 -25 -10 -11 -10 -13 -1 -7 14 8 18
-6 6 -18 -12 -11 -12 -37 0 -29 6 4 8 0 4 -9 -3 -9 2 -26 10 -39 9 -12 11 -19
5 -15 -16 10 -15 -16 0 -33 10 -11 10 -13 0 -7 -7 4 -12 2 -12 -6 0 -8 6 -20
12 -27 10 -11 10 -13 1 -7 -10 5 -13 -6 -13 -44 0 -38 3 -49 12 -44 10 6 10 5
1 -7 -10 -12 -10 -18 0 -29 9 -10 9 -11 -1 -6 -6 4 -12 2 -12 -3 0 -6 5 -11
10 -11 14 0 12 -27 -2 -33 -10 -4 -10 -6 0 -6 9 -1 12 -26 12 -90 0 -57 4 -91
11 -93 7 -2 12 -28 12 -61 0 -31 3 -57 8 -57 5 0 9 -27 9 -60 0 -33 4 -60 10
-60 6 0 10 -10 10 -23 0 -13 6 -29 12 -36 10 -11 10 -13 0 -7 -6 4 -12 3 -12
-3 0 -5 6 -11 12 -13 7 -3 11 -18 10 -36 -1 -20 2 -32 10 -32 9 0 8 -3 -2 -10
-10 -6 -11 -10 -2 -10 7 0 12 -13 12 -30 0 -16 5 -30 10 -30 6 0 10 -13 10
-29 0 -16 4 -31 10 -33 5 -1 11 -15 12 -30 1 -16 6 -28 10 -28 4 0 8 -11 8
-24 0 -13 5 -26 10 -28 6 -2 12 -13 13 -26 0 -12 5 -22 9 -22 4 0 8 -13 8 -29
0 -16 6 -34 14 -40 8 -7 13 -21 11 -32 -2 -11 0 -17 6 -14 5 4 9 -1 9 -9 0 -9
6 -16 13 -16 9 0 9 -2 0 -8 -9 -6 -7 -12 7 -22 11 -8 20 -25 20 -37 0 -13 5
-22 13 -21 6 2 11 -5 9 -15 -2 -9 2 -17 8 -17 5 0 10 -9 10 -20 0 -11 5 -20
10 -20 6 0 10 -9 10 -21 0 -11 4 -18 9 -15 5 3 12 -1 15 -9 5 -13 10 -14 27
-4 15 8 19 8 15 0 -4 -7 1 -11 13 -11 12 0 21 5 21 10 0 6 5 10 11 10 5 0 8
-3 6 -7 -3 -5 23 -9 56 -10 47 -2 58 0 47 8 -13 9 -12 10 2 5 10 -3 25 -9 35
-13 12 -5 14 -3 8 8 -7 11 -6 12 6 2 10 -8 19 -9 25 -3 5 5 39 10 76 12 36 1
64 6 62 10 -4 7 54 13 79 9 5 -1 6 3 2 9 -4 6 6 10 23 10 18 0 32 6 36 16 4 9
13 14 21 10 8 -3 15 -1 15 4 0 6 14 10 30 10 23 0 30 4 30 20 0 11 -4 20 -10
20 -5 0 -10 7 -10 16 0 9 -9 18 -20 21 -11 3 -20 11 -20 18 0 6 -9 20 -20 30
-11 10 -20 26 -20 37 0 10 -4 18 -10 18 -5 0 -13 12 -16 27 -4 15 -13 34 -21
41 -7 8 -11 18 -8 23 4 5 1 9 -4 9 -6 0 -11 9 -11 20 0 11 -4 20 -10 20 -5 0
-10 9 -10 21 0 11 -5 17 -10 14 -6 -3 -10 3 -10 14 0 11 -9 25 -20 31 -11 6
-20 16 -20 23 0 7 4 6 10 -3 6 -9 10 -10 10 -3 0 6 -4 15 -10 18 -5 3 -10 20
-10 36 0 21 -4 28 -12 23 -8 -5 -9 -2 -5 9 3 9 0 23 -8 31 -8 8 -15 33 -15 56
0 25 -4 39 -10 35 -6 -4 -10 5 -10 19 0 14 -4 26 -8 26 -7 0 -12 35 -15 108 0
6 -4 12 -9 12 -4 0 -8 20 -8 45 0 25 -4 45 -10 45 -6 0 -10 30 -10 69 0 38 -4
71 -9 73 -6 1 -11 53 -12 113 -1 69 -6 113 -13 117 -8 6 -7 8 2 8 6 0 12 12
12 26 0 17 -4 23 -12 18 -10 -6 -10 -4 -1 7 7 7 13 17 13 22 0 4 -6 5 -13 1
-9 -6 -9 -4 0 7 9 8 13 47 13 112 0 69 3 96 11 91 8 -5 8 -1 0 14 -7 14 -8 23
-1 27 5 3 10 42 10 86 0 46 4 79 10 79 6 0 10 5 10 11 0 5 -5 7 -11 4 -6 -4
-5 3 3 14 11 18 11 23 -2 31 -10 6 -11 10 -2 10 6 0 12 7 12 16 0 8 -4 13 -9
10 -5 -4 -4 5 2 18 7 13 14 23 18 21 3 -2 7 24 8 58 1 34 7 65 14 69 9 5 8 8
-3 8 -13 0 -13 2 -1 9 12 8 13 12 1 26 -7 9 -9 15 -4 14 28 -5 34 3 34 50 0
28 5 53 10 56 6 3 10 22 10 41 0 19 5 34 10 34 6 0 10 14 10 30 0 17 5 30 13
30 8 0 7 4 -3 10 -10 6 -11 10 -2 10 6 0 12 9 12 20 0 11 4 20 8 20 4 0 9 17
10 38 2 20 7 39 12 40 6 2 10 12 10 23 0 10 5 19 10 19 6 0 10 11 10 25 0 14
6 25 13 25 8 0 7 4 -3 10 -11 7 -11 10 -2 10 7 0 12 8 10 18 -2 9 3 16 9 15
12 -3 16 21 16 90 0 9 6 17 13 17 8 0 14 8 14 19 0 21 25 73 31 66 3 -2 6 8 7
23 1 15 7 29 12 30 6 2 10 10 10 18 0 9 5 12 10 9 6 -4 10 7 10 24 0 17 5 31
11 31 5 0 8 4 5 9 -3 5 1 11 9 15 8 3 15 16 15 28 0 13 9 30 19 38 11 7 18 17
15 21 -7 12 7 39 17 33 13 -8 11 10 -3 24 -9 9 -9 15 1 25 10 10 11 9 5 -6 -5
-13 -2 -16 10 -11 9 3 14 10 11 14 -3 5 2 16 11 24 9 9 13 24 10 33 -5 13 -4
14 9 3 13 -11 15 -8 15 18 0 21 6 31 20 35 11 3 20 12 20 21 0 9 5 16 10 16 6
0 10 7 10 16 0 9 5 12 12 8 7 -4 8 -3 4 4 -4 7 4 23 18 37 15 14 26 32 26 40
0 8 5 15 11 15 5 0 7 5 4 10 -3 6 1 10 10 10 9 0 13 5 10 10 -3 6 1 10 9 10 9
0 15 6 13 13 -1 6 4 11 11 9 8 -1 11 2 8 7 -3 5 8 23 24 41 16 18 27 37 23 43
-3 5 -1 7 5 3 13 -8 44 22 36 35 -3 5 -2 9 3 8 21 -4 33 2 33 17 0 9 9 18 19
21 11 3 22 11 25 19 11 29 55 35 101 15 24 -11 47 -16 51 -13 4 4 4 1 0 -5 -5
-9 0 -13 16 -13 18 0 20 -2 8 -10 -11 -7 -7 -10 18 -10 20 0 31 -4 27 -10 -4
-6 8 -10 30 -10 20 0 34 -4 31 -9 -3 -5 10 -9 29 -9 20 0 41 -4 48 -10 6 -5
55 -10 107 -11 52 -1 99 -6 104 -11 13 -13 29 -13 22 -1 -4 5 2 8 11 6 10 -2
18 -4 18 -5 0 -1 12 -3 27 -4 15 -2 25 1 22 6 -8 13 29 6 38 -7 5 -6 8 -5 8 3
0 9 32 12 126 12 81 0 123 4 119 10 -4 6 13 10 45 10 38 0 49 3 44 13 -6 9 -4
9 7 0 7 -7 20 -13 28 -13 14 0 14 1 1 10 -10 7 11 10 68 10 48 0 82 4 82 10 0
6 25 10 55 10 30 0 55 5 55 10 0 6 5 10 11 10 5 0 8 -4 5 -8 -3 -5 1 -9 9 -9
8 0 12 4 9 9 -3 4 69 8 160 8 141 0 166 -2 166 -15 0 -8 -4 -15 -10 -15 -5 0
-10 -11 -10 -24 0 -13 -4 -26 -10 -28 -5 -1 -10 -20 -12 -40 -1 -21 -6 -38
-11 -38 -5 0 -7 -9 -4 -20 3 -13 0 -20 -9 -20 -10 0 -14 -12 -14 -40 0 -22 -4
-40 -10 -40 -5 0 -10 -13 -10 -29 0 -17 -4 -33 -10 -36 -6 -3 -10 -35 -10 -71
0 -36 -4 -64 -10 -64 -5 0 -9 -3 -9 -7 5 -30 -3 -123 -9 -119 -5 3 -9 -1 -9
-9 0 -8 5 -15 10 -15 5 0 4 -7 -3 -15 -10 -12 -10 -18 1 -32 10 -11 10 -14 2
-9 -10 5 -13 -7 -13 -53 0 -33 5 -63 10 -66 6 -3 10 -12 10 -18 0 -7 -4 -6
-10 3 -6 9 -10 10 -10 3 0 -6 5 -15 10 -18 6 -3 10 -37 10 -76 0 -39 4 -69 10
-69 6 0 10 -26 10 -57 0 -41 3 -54 10 -43 7 11 10 7 10 -17 0 -18 4 -33 8 -33
5 0 9 -21 11 -48 1 -26 6 -49 12 -50 5 -2 9 -12 9 -23 0 -10 5 -19 10 -19 6 0
10 -12 10 -26 0 -15 10 -35 22 -45 11 -11 16 -19 10 -19 -17 0 -15 -19 3 -37
8 -8 13 -19 10 -24 -4 -5 -1 -9 4 -9 6 0 11 -7 11 -16 0 -8 4 -12 10 -9 6 4
10 -7 10 -24 0 -17 5 -31 10 -31 6 0 10 -9 10 -20 0 -11 5 -20 10 -20 6 0 10
-7 10 -16 0 -9 10 -25 22 -35 14 -13 17 -19 7 -20 -8 0 -4 -4 9 -9 12 -5 22
-16 22 -25 0 -8 5 -15 10 -15 6 0 10 -11 10 -25 0 -14 11 -37 25 -51 14 -14
23 -30 20 -35 -4 -5 3 -9 14 -9 16 0 21 -6 21 -28 0 -16 8 -34 20 -42 11 -8
20 -20 20 -28 0 -7 11 -24 25 -38 14 -14 22 -30 19 -36 -4 -7 -2 -8 4 -4 8 4
12 0 12 -11 0 -15 2 -16 10 -3 7 11 10 8 10 -16 0 -23 5 -33 20 -37 12 -3 20
-14 20 -27 0 -11 5 -18 10 -15 6 3 10 -3 10 -15 0 -12 4 -18 10 -15 6 3 10 0
10 -7 0 -8 9 -20 20 -28 11 -8 20 -20 20 -28 0 -7 11 -24 25 -38 14 -14 22
-30 19 -36 -4 -7 -2 -8 4 -4 7 4 12 1 12 -8 0 -9 5 -16 10 -16 6 0 10 -10 10
-22 0 -19 2 -20 10 -8 8 12 10 11 10 -5 0 -11 9 -27 20 -35 11 -8 20 -21 20
-30 0 -9 9 -22 19 -30 11 -7 18 -17 15 -22 -3 -4 2 -8 10 -8 9 0 16 -8 16 -18
0 -10 9 -24 20 -32 11 -8 20 -21 20 -30 0 -9 9 -22 20 -30 11 -8 20 -22 20
-32 0 -10 5 -18 10 -18 6 0 10 -7 10 -16 0 -8 5 -12 10 -9 6 4 10 -5 10 -20 0
-17 11 -37 30 -55 16 -15 30 -35 30 -44 0 -9 5 -16 10 -16 6 0 10 -9 10 -20 0
-11 5 -20 10 -20 6 0 10 -7 10 -15 0 -9 9 -25 20 -37 11 -12 20 -32 20 -45 0
-14 4 -21 10 -18 6 3 10 -1 10 -9 0 -9 9 -16 20 -16 11 0 20 -4 20 -10 0 -5 9
-10 20 -10 11 0 20 -4 20 -10 0 -5 10 -10 23 -10 16 0 18 -3 8 -9 -10 -6 -1
-11 28 -16 22 -4 43 -11 47 -16 3 -5 14 -9 25 -9 11 0 18 -4 15 -8 -2 -4 7 -9
22 -10 14 -1 29 -6 32 -12 3 -5 22 -10 43 -12 20 -1 37 -6 37 -11 0 -5 6 -7
14 -4 8 3 20 -1 26 -9 7 -8 28 -14 46 -14 19 0 34 -4 34 -10 0 -5 11 -10 25
-10 14 0 25 -5 25 -10 0 -6 3 -9 8 -9 4 1 38 1 75 0 52 -1 66 -4 61 -13 -5 -9
-2 -9 9 1 12 9 17 10 17 2 0 -8 21 -11 65 -9 36 2 65 1 65 -2 0 -11 205 2 219
13 12 10 13 9 6 -3 -6 -12 -5 -13 6 -2 7 6 30 12 51 12 21 0 47 5 58 10 11 6
29 15 40 20 11 6 27 10 35 10 9 0 18 7 21 15 4 8 10 12 15 9 5 -3 9 0 9 5 0 6
9 11 21 11 11 0 17 5 14 10 -3 6 -1 10 5 10 6 0 22 11 36 25 14 14 33 25 43
25 13 0 20 9 23 30 4 24 1 30 -14 30 -11 0 -16 5 -13 10 4 6 3 10 -2 9 -34 -6
-133 3 -128 11 4 6 -8 10 -29 10 -19 0 -38 4 -41 10 -3 5 -24 10 -46 10 -24 0
-38 4 -34 10 4 6 -7 10 -24 10 -17 0 -31 5 -31 10 0 6 -14 10 -31 10 -17 0
-28 4 -24 10 4 6 -7 10 -25 10 -18 0 -29 4 -25 10 4 6 -5 10 -20 10 -15 0 -24
4 -20 10 4 6 -5 10 -20 10 -15 0 -24 4 -20 10 3 6 -3 10 -14 10 -12 0 -21 5
-21 10 0 6 -7 10 -15 10 -8 0 -15 3 -15 8 0 4 -15 14 -32 21 -18 8 -41 23 -50
34 -13 14 -18 16 -19 6 0 -8 -4 -4 -9 8 -5 13 -14 23 -21 23 -6 0 -24 14 -39
30 -15 17 -35 30 -44 30 -9 0 -16 8 -16 20 0 18 -11 25 -33 21 -5 -1 -6 3 -2
9 3 5 1 10 -5 10 -6 0 -14 8 -17 17 -4 10 -15 25 -24 34 -10 9 -23 28 -28 42
-6 15 -17 27 -26 27 -8 0 -15 8 -15 18 0 10 -9 24 -20 32 -14 10 -16 16 -7 22
8 5 6 8 -6 8 -10 0 -16 4 -13 8 3 5 -4 15 -15 22 -10 8 -19 21 -19 30 0 9 -9
22 -20 30 -11 8 -20 21 -20 29 0 7 -8 21 -17 30 -10 9 -19 23 -21 31 -2 8 -8
16 -13 18 -5 2 -9 12 -9 23 0 10 -4 19 -10 19 -5 0 -10 9 -10 20 0 11 -4 20
-10 20 -5 0 -10 9 -10 20 0 11 -4 20 -10 20 -5 0 -10 7 -10 15 0 9 -9 25 -20
37 -11 12 -20 30 -20 40 0 10 -9 28 -20 40 -11 12 -20 32 -20 45 0 13 -4 23
-10 23 -5 0 -10 10 -10 23 0 18 -2 19 -10 7 -7 -11 -10 -7 -10 18 0 17 -4 32
-10 32 -5 0 -10 9 -10 20 0 11 -4 20 -10 20 -5 0 -10 12 -10 26 0 14 -4 23
-10 19 -5 -3 -10 3 -10 14 0 10 -4 21 -10 23 -5 2 -11 15 -12 31 -2 25 -18 40
-18 16 0 -5 -5 -7 -11 -3 -7 4 -7 9 -2 13 12 7 13 42 1 35 -4 -3 -8 9 -8 26 0
18 -4 29 -10 25 -5 -3 -10 -1 -10 5 0 6 -5 8 -11 4 -7 -4 -7 1 1 16 8 15 8 20
1 16 -7 -5 -11 4 -11 23 0 17 -4 31 -10 31 -5 0 -10 9 -10 20 0 11 -4 20 -10
20 -5 0 -10 11 -10 25 0 14 -9 35 -20 47 -12 13 -20 36 -20 55 0 18 -5 33 -11
33 -5 0 -8 4 -4 9 3 5 -2 16 -10 24 -8 9 -15 32 -15 53 0 33 -2 35 -17 23 -9
-8 -14 -9 -10 -2 4 6 1 14 -5 16 -10 4 -10 6 0 6 6 1 12 10 12 22 0 13 -4 18
-12 13 -8 -5 -7 0 2 11 9 11 10 16 3 11 -10 -5 -13 4 -13 38 0 24 -4 46 -10
48 -5 2 -10 20 -12 40 -1 20 -6 34 -10 32 -4 -3 -8 31 -8 76 0 52 -4 79 -10
75 -11 -7 -11 1 -11 179 -1 75 3 111 12 116 8 6 6 9 -7 13 -16 4 -17 5 -1 6
14 1 17 10 17 51 0 28 5 50 10 50 6 0 10 16 10 36 0 19 4 33 8 30 4 -2 9 7 10
22 1 14 7 29 13 33 7 4 9 16 7 27 -4 15 -2 19 8 15 10 -4 14 3 14 22 0 15 4
24 10 20 6 -3 10 3 10 14 0 12 5 21 10 21 6 0 10 7 10 16 0 9 9 24 20 34 11 9
21 26 23 36 4 31 18 46 36 41 10 -2 18 1 18 9 0 7 -5 10 -10 7 -6 -3 -7 -1 -3
5 4 7 12 12 17 12 6 0 28 18 49 40 21 22 43 40 48 40 5 0 28 18 51 40 25 25
46 37 56 34 17 -7 21 -34 5 -34 -5 0 -10 -23 -10 -51 0 -31 -4 -48 -10 -44 -5
3 -10 2 -10 -4 0 -5 6 -12 13 -14 9 -4 8 -8 -3 -16 -12 -8 -12 -13 -2 -23 15
-15 16 -48 1 -48 -8 0 -7 -6 2 -17 12 -15 12 -16 -1 -8 -13 7 -13 6 -2 -7 7
-9 13 -36 15 -61 1 -25 5 -43 9 -41 5 3 8 -11 8 -30 0 -20 5 -36 10 -36 6 0
10 -9 10 -19 0 -11 6 -22 13 -24 9 -4 9 -6 -1 -6 -10 -1 -9 -5 3 -17 12 -12
19 -13 29 -4 12 9 14 7 12 -7 -2 -11 -10 -17 -21 -15 -16 3 -17 2 -2 -12 8 -9
20 -16 25 -16 6 0 8 -9 5 -20 -4 -14 0 -20 11 -20 9 0 20 -8 23 -17 4 -10 15
-25 25 -34 10 -9 18 -24 18 -33 0 -11 7 -16 18 -14 11 2 18 -4 20 -19 2 -13
10 -23 19 -23 8 0 28 -14 43 -30 16 -17 31 -31 34 -30 20 1 25 -2 31 -20 3
-11 15 -20 26 -20 10 0 19 -5 19 -11 0 -5 5 -7 10 -4 6 3 10 1 10 -5 0 -6 5
-8 10 -5 6 3 10 1 10 -4 0 -6 8 -11 18 -11 10 0 24 -9 32 -20 10 -14 26 -20
52 -20 21 0 38 -5 38 -11 0 -6 9 -9 20 -6 13 3 20 0 20 -9 0 -10 12 -14 40
-14 25 0 40 -5 40 -12 0 -9 4 -8 10 2 6 10 10 11 10 3 0 -8 13 -13 29 -13 17
0 33 -5 36 -10 4 -7 62 -10 156 -9 86 0 147 5 143 10 -5 8 20 13 73 12 12 0
20 4 17 8 -3 5 15 9 40 9 25 0 46 5 46 10 0 6 9 10 19 10 11 0 21 4 23 10 2 5
15 11 30 12 21 2 24 5 16 15 -6 8 -8 16 -4 20 3 3 6 2 6 -4 0 -5 7 -10 15 -10
8 0 15 4 15 9 0 4 9 8 20 8 11 0 20 5 20 10 0 6 6 10 14 10 7 0 32 18 54 39
22 22 43 37 46 34 3 -4 6 1 6 10 0 10 5 17 10 17 6 0 10 6 10 14 0 15 26 28
45 23 11 -2 24 51 17 71 -3 8 -33 12 -106 12 -69 0 -96 -3 -86 -10 11 -7 -3
-10 -45 -10 -34 0 -55 -4 -47 -8 7 -5 -16 -9 -55 -10 -37 -1 -72 -7 -77 -12
-6 -6 -32 -10 -59 -10 -32 0 -46 -4 -41 -11 5 -8 1 -8 -14 0 -24 13 -35 14
-28 3 2 -4 -5 -9 -17 -9 -17 -2 -18 0 -7 7 11 7 10 9 -7 7 -12 0 -20 -4 -17
-8 5 -8 -13 -6 -40 6 -11 5 -27 3 -39 -5 -17 -10 -22 -10 -32 4 -7 8 -15 13
-18 9 -4 -3 -7 -1 -7 5 0 7 -9 12 -20 12 -11 0 -20 4 -20 9 0 5 -15 16 -32 24
-32 15 -68 50 -68 65 0 4 -11 20 -25 36 -13 16 -22 34 -18 40 4 6 0 5 -9 -2
-13 -10 -18 -10 -24 -1 -4 8 -3 9 4 5 7 -4 12 -1 12 8 0 9 -4 16 -10 16 -5 0
-10 7 -10 16 0 8 -7 22 -15 31 -8 8 -13 19 -10 24 4 5 1 9 -4 9 -6 0 -11 7
-11 16 0 20 -25 45 -36 36 -5 -4 -2 1 5 11 9 11 10 17 2 17 -7 0 -11 22 -11
61 0 37 -4 58 -10 54 -6 -4 -10 6 -10 22 0 16 -6 35 -12 42 -10 11 -10 13 0 7
6 -4 12 -2 12 3 0 6 -5 11 -10 11 -7 0 -10 79 -9 240 0 152 5 238 11 234 5 -3
9 0 7 7 -4 30 1 70 9 66 4 -3 8 14 9 36 2 23 7 43 13 45 6 2 8 7 5 12 -3 5 1
15 9 23 8 7 16 25 18 38 1 13 8 30 15 37 16 17 179 17 186 0 4 -10 6 -10 6 0
1 8 8 6 23 -8 20 -18 39 -25 61 -21 5 1 6 -2 3 -7 -3 -5 6 -15 19 -22 14 -7
25 -18 25 -24 0 -6 5 -4 10 4 7 11 10 6 11 -20 0 -19 3 -29 6 -22 4 10 11 5
24 -14 10 -15 16 -31 13 -36 -3 -4 3 -5 12 -1 14 5 16 3 11 -11 -4 -10 -3 -15
3 -11 6 4 10 -6 10 -23 0 -31 21 -57 36 -44 4 4 2 -2 -6 -12 -10 -13 -10 -17
-2 -12 8 5 12 -2 12 -23 0 -19 5 -31 13 -31 14 0 14 -3 23 -93 5 -47 3 -62
-12 -78 -9 -10 -14 -19 -10 -19 11 0 -20 -29 -35 -32 -7 -2 -32 -22 -56 -46
-39 -37 -44 -47 -41 -80 2 -29 7 -37 23 -37 11 0 25 -3 30 -7 16 -10 39 8 30
23 -6 11 -5 12 6 2 16 -15 49 -17 49 -3 0 6 7 10 15 10 9 0 20 10 25 23 5 13
9 16 10 7 1 -14 22 23 25 45 0 6 6 9 13 8 7 -2 12 9 12 26 0 17 5 33 11 37 6
3 9 24 7 44 -3 30 -1 36 9 28 9 -7 12 -2 9 26 -2 27 1 36 13 36 13 0 13 2 2 9
-11 7 -11 9 0 14 12 4 12 6 0 6 -10 1 -9 6 5 19 10 9 20 27 22 40 4 26 46 72
67 72 8 0 15 5 15 10 0 6 17 10 38 10 21 0 42 3 46 7 9 10 68 13 81 5 16 -10
36 -11 29 -1 -3 5 6 4 20 -3 14 -6 26 -14 26 -18 0 -4 9 -10 20 -13 11 -3 20
-12 20 -21 0 -9 6 -16 14 -16 9 0 12 -7 9 -20 -3 -11 0 -20 6 -20 7 0 11 -40
11 -126 0 -87 -3 -123 -11 -118 -7 4 -10 -12 -7 -52 2 -45 7 -59 19 -62 9 -2
19 4 23 14 5 12 2 15 -9 10 -9 -3 -13 -2 -10 4 3 6 13 10 21 10 9 0 14 11 14
30 0 17 4 30 10 30 5 0 9 3 9 8 -4 22 2 42 11 37 6 -4 10 -3 9 2 -5 26 2 63
11 58 6 -3 10 3 10 14 0 12 5 21 10 21 6 0 10 12 10 26 0 14 4 23 10 19 6 -3
10 1 10 10 0 10 -5 13 -12 9 -7 -4 -8 -3 -4 4 4 7 14 12 22 12 8 0 14 9 14 20
0 11 5 20 10 20 6 0 10 9 10 20 0 11 5 20 10 20 6 0 10 8 10 19 0 10 7 24 15
31 8 7 12 16 9 21 -3 5 0 9 5 9 6 0 11 9 11 20 0 11 4 20 9 20 5 0 16 16 25
35 9 19 21 35 27 35 6 0 7 5 4 10 -3 6 -2 10 3 10 5 0 9 7 10 15 1 8 3 21 4
29 1 8 4 15 7 14 23 -2 31 6 31 30 0 16 8 34 20 42 11 8 20 25 20 38 0 12 9
32 20 44 11 12 20 30 20 41 0 10 6 25 14 33 8 7 12 24 9 36 -4 19 -3 20 6 8 9
-12 11 -11 12 10 1 14 1 28 0 33 0 4 4 7 9 7 6 0 10 9 10 20 0 11 5 20 10 20
6 0 10 9 10 19 0 11 5 23 10 26 6 3 10 18 9 33 0 15 -3 21 -6 15 -8 -21 -25
-14 -18 7 7 23 -5 26 -24 8 -7 -7 -12 -8 -11 -3 5 24 -1 35 -20 35 -11 0 -20
5 -20 10 0 6 -10 10 -23 10 -13 0 -33 9 -45 20 -12 11 -28 20 -37 20 -8 0 -15
3 -15 8 0 8 -48 32 -65 32 -6 0 -17 9 -25 20 -8 11 -22 20 -32 20 -10 0 -18 6
-18 13 0 8 -4 7 -10 -3 -8 -13 -10 -12 -10 3 0 10 -15 24 -40 34 -22 10 -40
21 -40 25 0 5 -9 8 -19 8 -11 0 -22 6 -24 13 -4 9 -8 8 -17 -3 -9 -12 -10 -11
-5 8 5 16 2 22 -10 22 -9 0 -14 4 -11 9 4 5 -5 8 -18 7 -17 -2 -23 1 -19 10 3
9 -2 14 -14 14 -10 0 -25 9 -33 20 -8 11 -20 20 -28 20 -7 0 -10 5 -7 10 3 6
-3 10 -14 10 -12 0 -21 5 -21 10 0 6 -7 10 -16 10 -8 0 -12 5 -9 10 3 6 -1 10
-10 10 -9 0 -13 5 -10 10 3 6 -3 10 -14 10 -12 0 -20 3 -20 8 3 20 -3 32 -16
32 -9 0 -36 20 -61 45 -25 25 -50 42 -56 39 -7 -4 -8 -3 -4 4 4 7 2 12 -5 12
-7 0 -10 3 -6 6 3 3 -14 26 -39 50 -24 25 -42 49 -39 55 4 5 1 8 -7 7 -7 -2
-12 3 -10 10 1 6 -5 12 -13 12 -9 0 -19 8 -22 18 -4 9 -14 24 -22 32 -9 8 -22
27 -30 43 -8 15 -18 27 -23 27 -4 0 -8 8 -8 18 0 10 -9 24 -20 32 -11 8 -20
23 -20 33 0 12 -5 17 -14 14 -10 -4 -12 0 -9 14 4 12 -3 26 -16 38 -11 10 -21
26 -21 35 0 9 -4 16 -10 16 -5 0 -10 9 -10 19 0 11 -4 23 -10 26 -5 3 -10 18
-10 33 0 21 -2 24 -10 12 -8 -12 -10 -9 -10 13 0 15 -6 30 -14 33 -8 3 -12 13
-9 24 3 10 0 21 -6 24 -6 4 -11 18 -11 32 0 14 -6 32 -14 40 -8 7 -12 24 -9
36 4 19 3 20 -6 8 -10 -15 -14 4 -14 72 0 9 -4 16 -10 15 -7 -1 -10 15 -8 41
1 25 -2 42 -8 42 -6 0 -11 19 -11 45 0 26 -8 59 -20 80 -11 20 -16 34 -10 30
6 -4 10 14 10 50 0 42 -3 54 -12 49 -10 -6 -10 -4 0 7 6 7 12 17 12 22 0 4 -6
5 -12 1 -10 -6 -10 -4 0 8 9 11 10 18 2 23 -6 4 -10 67 -10 171 0 118 3 163
11 158 8 -5 8 -1 0 14 -7 13 -7 23 -2 27 6 3 9 14 8 25 -1 10 -4 17 -7 15 -3
-2 -7 6 -7 18 -2 17 0 19 7 7 8 -12 10 -9 10 12 0 14 -6 29 -12 31 -10 4 -10
6 0 6 6 1 12 13 12 27 0 52 16 57 200 55 107 -1 171 2 175 9 3 5 13 10 21 10
8 0 30 16 49 35 35 34 46 53 23 39 -8 -5 -9 -2 -5 9 4 11 1 17 -8 17 -8 0 -20
9 -27 20 -7 11 -21 20 -30 20 -10 0 -18 4 -18 9 0 13 -79 43 -92 35 -7 -4 -8
-2 -4 4 5 8 -1 12 -14 12 -12 0 -19 4 -16 8 2 4 -34 9 -82 11 -53 1 -90 7 -94
14 -6 9 -8 9 -8 0 0 -7 -5 -13 -11 -13 -5 0 -8 4 -5 8 3 5 -1 9 -9 9 -8 0 -12
-4 -9 -9 8 -12 -10 -10 -24 4 -9 9 -15 9 -24 0 -16 -16 -31 -15 -22 1 6 10 4
10 -7 0 -7 -7 -37 -13 -66 -13 -50 0 -59 -5 -54 -33 1 -5 -3 -6 -9 -2 -5 3
-10 1 -10 -5 0 -6 -4 -8 -10 -5 -5 3 -10 -1 -10 -10 0 -10 5 -13 12 -9 7 4 8
3 4 -5 -6 -9 -11 -9 -22 0 -11 9 -14 8 -15 -7 -1 -11 -1 -23 0 -27 1 -5 -4 -5
-10 -1 -9 5 -10 0 -6 -15 4 -17 2 -20 -7 -12 -9 7 -12 3 -14 -17 -1 -14 -7
-31 -12 -36 -6 -6 -10 -20 -10 -33 0 -13 -3 -23 -7 -23 -5 0 -9 -17 -10 -37
-1 -21 -7 -39 -13 -41 -5 -2 -10 -8 -10 -13 0 -6 6 -7 13 -3 6 4 4 -2 -6 -13
-9 -11 -14 -23 -10 -26 3 -4 1 -7 -5 -7 -7 0 -12 -13 -12 -28 0 -15 -4 -32 -8
-37 -5 -6 -14 -23 -20 -38 -10 -22 -9 -27 0 -21 7 4 2 -6 -10 -23 -14 -19 -19
-38 -15 -49 4 -12 3 -15 -5 -10 -7 4 -19 1 -27 -8 -11 -11 -12 -16 -2 -19 7
-3 5 -6 -5 -6 -10 -1 -18 -5 -18 -11 0 -6 -60 -10 -160 -10 -108 0 -160 4
-160 11 0 6 -15 9 -37 7 -22 -2 -38 2 -41 10 -2 6 -17 12 -33 12 -16 0 -29 5
-29 11 0 5 -4 7 -10 4 -5 -3 -10 -1 -10 4 0 6 -3 11 -7 10 -16 -2 -53 14 -53
22 0 5 -7 9 -16 9 -9 0 -12 5 -8 12 4 6 3 8 -3 5 -5 -3 -27 10 -47 29 -32 30
-40 33 -54 22 -15 -12 -16 -11 -3 4 12 16 10 21 -18 47 -17 16 -31 36 -31 45
0 15 -12 21 -33 17 -5 -1 -6 3 -3 8 4 5 -1 16 -9 24 -8 9 -15 23 -15 31 0 9
-4 16 -10 16 -5 0 -10 9 -10 20 0 11 -4 20 -10 20 -5 0 -10 9 -10 21 0 11 -4
17 -10 14 -6 -3 -10 4 -10 17 0 13 -9 30 -20 38 -14 10 -16 16 -7 22 9 6 9 8
0 8 -7 0 -13 11 -13 25 0 15 -5 24 -12 23 -7 -2 -12 5 -10 15 2 9 -2 17 -8 17
-5 0 -10 14 -10 32 0 17 -3 28 -7 25 -9 -9 -32 40 -35 73 -1 16 -6 26 -10 24
-4 -3 -8 6 -8 20 0 14 -4 26 -10 26 -5 0 -10 9 -10 21 0 11 -4 17 -10 14 -6
-4 -10 5 -10 19 0 14 -4 26 -10 26 -5 0 -10 8 -10 19 0 10 -9 21 -20 24 -11 3
-20 11 -20 19 0 10 3 9 10 -2 8 -13 10 -12 10 3 0 9 -4 17 -10 17 -5 0 -10 7
-10 16 0 8 -4 13 -9 10 -5 -4 -15 7 -23 24 -7 16 -17 30 -23 30 -5 0 -3 5 5
11 12 9 11 10 -7 6 -12 -3 -22 -2 -21 2 0 3 0 14 -1 24 -1 21 -21 23 -21 1z
m1105 -1334 c-3 -5 -2 -10 4 -10 5 0 11 6 14 13 3 9 9 9 28 -2 16 -10 24 -10
27 -2 2 6 8 11 13 11 6 0 8 -4 5 -9 -4 -5 2 -7 12 -4 10 2 24 -3 31 -11 8 -9
22 -16 32 -16 11 0 19 -4 19 -10 0 -5 9 -10 20 -10 11 0 20 -4 20 -10 0 -5 7
-10 16 -10 9 0 18 -8 21 -18 2 -10 14 -22 26 -28 12 -5 21 -15 20 -22 -2 -7 2
-12 7 -12 6 0 10 -25 10 -55 0 -37 4 -55 13 -55 9 0 8 -3 -2 -9 -9 -6 -10 -10
-2 -16 9 -5 9 -10 0 -21 -6 -8 -7 -14 -2 -14 5 0 10 -7 10 -15 0 -8 -3 -12 -7
-10 -8 5 -11 -85 -3 -99 11 -16 11 -56 1 -50 -4 3 -8 -2 -8 -11 0 -9 4 -14 8
-11 10 6 9 -45 -2 -62 -4 -7 -6 -34 -5 -60 2 -32 -1 -46 -9 -44 -7 1 -11 -1
-11 -5 1 -5 1 -28 0 -53 -1 -33 -4 -41 -11 -30 -8 13 -10 12 -10 -3 0 -10 -7
-25 -15 -34 -8 -8 -13 -19 -10 -24 4 -5 -3 -9 -14 -9 -12 0 -21 -4 -21 -10 0
-6 -42 -10 -105 -10 -63 0 -105 4 -105 10 0 6 -13 10 -30 10 -16 0 -30 5 -30
10 0 6 -9 10 -20 10 -11 0 -20 5 -20 10 0 6 -7 10 -16 10 -8 0 -12 5 -9 10 3
6 -4 10 -17 10 -18 0 -20 2 -8 10 13 8 12 10 -3 10 -11 0 -21 9 -24 20 -3 11
-9 17 -14 14 -5 -3 -9 6 -9 20 0 27 -15 35 -23 14 -3 -7 -3 2 0 20 3 20 1 32
-6 32 -6 0 -11 14 -11 30 0 17 -4 30 -10 30 -6 0 -10 61 -10 163 0 118 3 158
11 147 9 -12 10 -11 6 8 -3 13 1 25 8 30 8 4 15 24 17 44 1 20 4 36 7 36 21
-2 31 4 31 17 0 9 11 27 25 41 14 14 23 30 20 35 -4 5 4 9 17 9 18 0 20 2 8
10 -11 7 -7 10 18 10 20 0 31 4 27 10 -3 6 3 10 14 10 11 0 23 5 26 10 3 6 8
10 11 10 3 0 2 -4 -1 -10z m1568 -1571 c-8 -8 -13 -7 -18 2 -5 8 -4 10 3 5 7
-4 12 -2 12 5 0 7 3 9 7 6 4 -4 2 -12 -4 -18z m-13 -55 c0 -8 -19 -13 -24 -6
-3 5 1 9 9 9 8 0 15 -2 15 -3z m-1009 -1851 c13 -16 12 -17 -3 -4 -10 7 -18
15 -18 17 0 8 8 3 21 -13z"/>
<path d="M6090 6668 c0 -4 -12 -8 -26 -8 -14 0 -23 -4 -19 -10 6 -9 -8 -14
-27 -11 -5 0 -8 -6 -8 -15 0 -8 -4 -12 -10 -9 -9 6 -14 -8 -11 -27 0 -5 -3 -8
-9 -8 -5 0 -10 -12 -10 -26 0 -14 -4 -23 -10 -19 -5 3 -10 -3 -10 -14 0 -12
-4 -21 -10 -21 -6 0 -10 -26 -10 -59 0 -38 -4 -61 -12 -64 -10 -4 -10 -6 0 -6
8 -1 12 -18 12 -51 0 -36 4 -50 14 -50 9 0 12 -7 9 -20 -3 -11 0 -20 6 -20 6
0 11 -9 11 -20 0 -13 7 -20 20 -20 18 0 25 -10 21 -32 0 -5 12 -8 29 -8 17 0
30 -4 30 -10 0 -5 9 -10 20 -10 11 0 20 -4 20 -10 0 -5 16 -10 35 -10 19 0 35
5 35 11 0 5 4 8 9 4 5 -3 16 2 24 10 12 11 17 12 20 2 3 -6 6 -2 6 11 1 13 5
20 11 17 6 -3 10 1 10 9 0 9 5 16 10 16 6 0 10 9 10 20 0 11 5 20 11 20 6 0 8
7 5 15 -3 9 1 18 8 21 11 4 14 38 15 161 1 93 -2 152 -7 149 -6 -3 -12 3 -15
14 -3 11 -17 24 -31 30 -14 5 -26 16 -26 25 0 9 -9 15 -26 15 -17 0 -23 4 -18
13 5 7 0 6 -11 -3 -12 -10 -16 -11 -11 -2 6 10 -3 12 -38 11 -25 -2 -46 -6
-46 -11z"/>
<path d="M5545 3830 c-3 -5 -2 -10 4 -10 5 0 13 5 16 10 3 6 2 10 -4 10 -5 0
-13 -4 -16 -10z"/>
<path d="M4811 2064 c0 -11 3 -14 6 -6 3 7 2 16 -1 19 -3 4 -6 -2 -5 -13z"/>
</g>
</svg>
